<svg xmlns="http://www.w3.org/2000/svg" viewBox="0 0 19.05 19.71"><title>insta-blot</title><g id="Layer_2" data-name="Layer 2"><g id="Layer_2-2" data-name="Layer 2"><ellipse id="Ellipse_3" data-name="Ellipse 3" cx="9.53" cy="9.86" rx="9.53" ry="9.86" style="fill:#f5a226"/></g><g id="Layer_1-2" data-name="Layer 1"><path d="M9.53,3.4c2.1,0,2.35,0,3.18.05,2.13.1,3.73,1.12,3.73,3.23,0,.73,0,1.07,0,3.18s0,2.36,0,3.18c-.09,2.11-1.61,3.13-3.74,3.23-.83,0-1.08,0-3.18,0s-2.35,0-3.18,0c-2.14-.1-3.61-1.12-3.71-3.23,0-.85,0-1.11,0-3.18s0-2.33,0-3.18c.09-2.12,1.55-3.13,3.69-3.23C7.18,3.41,7.42,3.4,9.53,3.4ZM9.53,2C7.39,2,7.12,2,6.28,2,3.42,2.16,1.83,3.75,1.7,6.61c0,.84-.05,1.11-.05,3.25s0,2.4.05,3.24c.13,2.86,1.72,4.45,4.58,4.58.84,0,1.11.05,3.25.05s2.4,0,3.24-.05c2.86-.13,4.45-1.71,4.58-4.58,0-.84,0-1.1,0-3.24s0-2.41,0-3.25C17.22,3.75,15.64,2.16,12.77,2,11.93,2,11.67,2,9.53,2Zm0,3.83a4,4,0,1,0,4,4.05A4,4,0,0,0,9.53,5.81Zm0,6.67a2.63,2.63,0,1,1,2.62-2.62A2.62,2.62,0,0,1,9.53,12.48Zm4.2-7.77a.95.95,0,1,0,.94.94A.95.95,0,0,0,13.73,4.71Z" style="fill:#240707"/></g></g></svg>