<?xml version="1.0" encoding="utf-8"?>
<!-- Generator: Adobe Illustrator 24.1.0, SVG Export Plug-In . SVG Version: 6.00 Build 0)  -->
<svg version="1.1" id="Layer_1" xmlns="http://www.w3.org/2000/svg" xmlns:xlink="http://www.w3.org/1999/xlink" x="0px" y="0px"
	 viewBox="0 0 10.8 15.9" style="enable-background:new 0 0 10.8 15.9;" xml:space="preserve">
<style type="text/css">
	.st0{fill:#240707;}
</style>
<circle class="st0" cx="5.4" cy="4.8" r="1.1"/>
<circle class="st0" cx="5.4" cy="11.2" r="1.1"/>
<path class="st0" d="M8.5,0.2C6.1-0.1,3.3-0.3,1.4,1.4c-1.6,1.6-1.9,4-0.7,5.9c0.6,1,1.6,1.8,2.7,2.1C4.3,9.5,5.1,9.6,6,9.6h0.3
	c-0.2,0,0,0,0.1,0c0.2,0,0.4,0.1,0.5,0.1c0.1,0,0.2,0.1,0,0C7,9.8,7.1,9.9,7.2,9.9c0,0-0.1-0.1,0,0c0.1,0.1,0.2,0.2,0.3,0.3
	c-0.1-0.2,0.2,0.4,0.1,0.2c0.1,0.1,0.1,0.5,0.1,0.4c0.1,0.4,0,0.8-0.1,1.1c0-0.1-0.2,0.3-0.1,0.2l-0.2,0.2c-0.2,0.2,0.2-0.1-0.2,0.1
	c-0.4,0.2-0.9,0.3-1.3,0.3c-1.2,0-2.5-0.2-3.7-0.5c-0.8-0.2-1.6,0.4-1.8,1.2c-0.1,0.7,0.3,1.4,1,1.7c2.2,0.6,5,1.1,7.1,0
	c2-1.1,2.8-3.5,2-5.6c-0.4-1.1-1.2-1.9-2.2-2.4C7.5,6.8,6.6,6.6,5.7,6.6c-0.3,0-0.7,0-1.1-0.1c-0.4,0-0.7-0.1-1-0.3
	C3.1,5.8,2.9,5.1,3,4.4c0-0.3,0.2-0.5,0.3-0.8c0.3-0.3,0.8-0.5,1.2-0.6C5.8,2.9,7.1,3,8.4,3.2c0.8,0,1.5-0.7,1.5-1.5
	C9.9,0.9,9.2,0.2,8.5,0.2L8.5,0.2z"/>
</svg>
