<?xml version="1.0" encoding="utf-8"?>
<!-- Generator: Adobe Illustrator 24.1.0, SVG Export Plug-In . SVG Version: 6.00 Build 0)  -->
<svg version="1.1" id="Layer_1" xmlns="http://www.w3.org/2000/svg" xmlns:xlink="http://www.w3.org/1999/xlink" x="0px" y="0px"
	 viewBox="0 0 125.6 37.1" style="enable-background:new 0 0 125.6 37.1;" xml:space="preserve">
<style type="text/css">
	.st0{fill:#240707;}
</style>
<g id="Layer_2_1_">
	<g id="Layer_2-2">
		<path class="st0" d="M1.3,29.6c0.4,5,5.4,7.6,9.9,7.5c3.2-0.1,6.3-0.9,9.1-2.2c2-0.9,5.1-2.3,5.4-4.7s-2.2-4.3-3.8-5.6
			c-1.9-1.4-4-2.7-6.1-3.8c-2-1.1-3.9-2.3-5.8-3.6c-1.8-1.4-4.5-3.6-4.2-6.1S10,7.3,12,6.7c1.2-0.5,2.4-0.8,3.7-0.9
			c1.2-0.1,2.5,0.9,2.2,2.2c-0.2,0.9,1.9,0.5,2.3,0.4c0.7-0.1,3.2-0.6,3.4-1.5c0.7-2.9-2.7-3.4-4.8-3.3C15.6,4,12.6,4.7,9.6,5.8
			C6,7.1-2.7,9.9,0.8,15.3c2.6,4,7.5,6.2,11.5,8.5c2.1,1.2,4.1,2.6,5.8,4.2c1,0.8,1.6,1.9,1.8,3.2c0.1,1.4-1,2.2-2.1,2.8
			c-2,1.2-4.5,1.3-6.5,0.2c-2.4-1.1-4-3.4-4.2-6C7,27.3,1.2,28.3,1.3,29.6L1.3,29.6z"/>
		<path class="st0" d="M41.5,24c0.3-3.9-4-5.2-7.1-4.7c-3.9,0.6-7,3.6-7.7,7.5c-0.2,1.6-0.1,3.5,1.3,4.6c1.6,1.2,3.9,1.1,5.7,0.6
			c2-0.4,3.8-1.6,5-3.2c1-1.6,1.6-3.5,1.8-5.4L34.9,25c1.2,1,1.5,2.5,2.2,3.8c0.7,1.4,2.1,2.4,3.6,2.6c2.4,0.2,4.8-0.5,6.7-2.1
			c1.6-1.4,2.2-3.5,2.6-5.6l-5.8,1.2l2.5,5.8c0.4,1,2,0.8,2.9,0.6c1.2-0.1,2.3-0.8,2.9-1.8c1.3-2.4,3.2-4.5,5.5-6
			c0.7-0.5-0.5,0.2-0.3,0h-0.1c0.1,0,0.3,0.1,0.4,0.2c0.4,0.3,0.8,0.6,1.1,1.1c0.7,1,1.1,2.1,1.4,3.3c0.3,0.9,1.8,0.8,2.5,0.7
			c1.2-0.1,2.3-0.6,3.1-1.5c1.4-1.7,3.3-4.6,5.7-4.9c2.6-0.3,5.1,2.5,4.9,5c-0.1,1.2,1.6,1.2,2.5,1.1s3.3-0.7,3.3-1.9
			c0.2-4.9-4.4-7.6-8.8-7.3c-2.8,0.2-5.5,1.1-7.8,2.8c-2,1.5-3.7,3.3-5.2,5.2l5.6-0.8c-0.4-1.7-1.3-3.3-2.5-4.6
			c-1.9-1.7-4.7-1.6-7-0.9c-4.5,1.4-8,5.2-10.1,9.3l5.8-1.2L50,23.2c-0.8-1.8-5.4-0.5-5.8,1.2c-0.1,1.3-0.6,2.6-1.2,3.7
			c0,0-0.5,0.6-0.5,0.5c0-0.4,1.5-0.1,1.5-0.3c-0.3-0.2-0.6-0.4-0.8-0.7c-1.2-1.5-1.3-3.5-2.8-4.8c-0.8-0.7-2.1-0.5-3-0.2
			s-2.4,0.8-2.5,1.7c-0.2,1.1-0.4,2.1-0.8,3.1c-0.1,0.2-1,2.2-1.2,2c0,0,0.8-0.3,0.8-0.2s-0.6-0.5-0.7-0.5c-0.5-0.8-0.7-1.8-0.5-2.8
			c0.1-0.9,0.4-1.8,0.8-2.6c0.1-0.2,1.1-1.5,1.1-1.4c-0.3,0.1-0.7,0.2-1,0.2c0.1,0,0.3,0,0.4,0.1c0.4,0.1,0.7,0.3,1,0.5
			c0.6,0.5,1,1.2,0.9,2C35.6,27,41.4,25.8,41.5,24L41.5,24z"/>
		<path class="st0" d="M102.2,19.4c-0.6-5.6-1.8-11.1-3.5-16.4l-1.2,1.3c3-1.6,6.5-2.1,9.8-1.4c1.9,0.3,3.7,1,5.2,2.1
			c1.3,1.2,2,2.8,2,4.6c0.3,7.6-7,12.4-13,15.1c-4.1,1.9-8.4,3.6-12.1,6.3c-0.9,0.6-0.7,1.4,0.4,1.5c1.5,0.1,2.9-0.3,4.1-1.1
			c7.2-5.2,16.5-6.6,22.5-13.5c2.6-3,4.4-6.9,3.7-10.9c-0.8-4.6-5.6-6.1-9.7-6.7c-5.6-0.8-11.4,0.3-16.4,3C93.8,3.4,92.8,4,93,4.5
			c1.7,5.4,2.9,10.9,3.5,16.5C96.6,22.3,102.5,21.1,102.2,19.4L102.2,19.4z"/>
		<path class="st0" d="M120.9,22.1h0.7c0.4,0,0.8,0,1.1-0.1c0.4,0,0.8-0.2,1.2-0.3c0.3-0.1,0.6-0.3,0.9-0.6c0.3-0.2,0.5-0.4,0.6-0.7
			l0.2-0.5c0.1-0.4,0-0.7-0.2-1l-0.4-0.4c-0.4-0.2-0.8-0.3-1.2-0.4H123c-0.4,0-0.8,0-1.1,0.1c-0.4,0-0.8,0.2-1.2,0.3
			c-0.3,0.1-0.6,0.3-0.9,0.6c-0.3,0.2-0.5,0.4-0.6,0.7l-0.2,0.5c-0.1,0.4,0,0.7,0.3,1l0.4,0.4C120.1,22,120.5,22.1,120.9,22.1
			L120.9,22.1z"/>
	</g>
</g>
</svg>
